<svg xmlns="http://www.w3.org/2000/svg" viewBox="0 0 15.527 23.369"><path fill="#fff" fill-opacity=".85" d="M0 14.697c0 .83.557 1.377 1.436 1.377h5.283v4.56c0 1.495.625 2.735.869 2.735.234 0 .86-1.24.86-2.734v-4.56h5.282c.88 0 1.436-.548 1.436-1.378 0-2.06-1.65-4.238-4.395-5.234L10.45 4.98c1.426-.81 2.598-1.728 3.106-2.382.254-.332.38-.664.38-.957 0-.596-.458-1.036-1.142-1.036H2.383c-.694 0-1.143.44-1.143 1.036 0 .293.117.625.371.957.508.654 1.68 1.572 3.106 2.382l-.322 4.483C1.65 10.459 0 12.637 0 14.697"/></svg>