<svg xmlns="http://www.w3.org/2000/svg" viewBox="0 0 24.658 19.795"><g fill="#ffffff" fill-opacity="0.9"><path d="M19.473 3.027v1.494H17.9V3.115c0-1.015-.556-1.543-1.523-1.543H3.086c-.977 0-1.514.528-1.514 1.543v9.043c0 1.016.537 1.533 1.514 1.533h1.738v1.573H3.066C1.016 15.264 0 14.258 0 12.236V3.027C0 1.016 1.016 0 3.066 0h13.34c2.032 0 3.067 1.016 3.067 3.027"/><path d="M7.89 19.785h13.34c2.032 0 3.067-1.015 3.067-3.027v-9.21c0-2.01-1.035-3.027-3.067-3.027H7.89c-2.05 0-3.066 1.016-3.066 3.028v9.209c0 2.021 1.016 3.027 3.067 3.027m.02-1.572c-.976 0-1.514-.518-1.514-1.533V7.637c0-1.016.538-1.543 1.514-1.543h13.291c.967 0 1.524.527 1.524 1.543v9.043c0 1.015-.557 1.533-1.524 1.533Z"/></g></svg>
